<svg height="512pt" viewBox="0 0 512 512" width="512pt" xmlns="http://www.w3.org/2000/svg"><path d="m223 287.375c4.140625 0 7.5-3.355469 7.5-7.5v-19.75c0-4.144531-3.359375-7.5-7.5-7.5s-7.5 3.355469-7.5 7.5v19.75c0 4.144531 3.359375 7.5 7.5 7.5zm0 0"/><path d="m481 497h-60.972656v-41.5h8.652344c11.496093 0 22.535156-3.472656 31.921874-10.039062 3.390626-2.375 4.21875-7.050782 1.84375-10.445313s-7.050781-4.21875-10.445312-1.84375c-6.855469 4.792969-14.917969 7.328125-23.320312 7.328125h-1.996094v-20.269531c0-8.3125-1.832032-16.207031-5.109375-23.300781 7.570312-10.835938 20.046875-17.429688 33.414062-17.429688h14.421875v20.269531c0 4.101563-.605468 8.152344-1.804687 12.03125-1.21875 3.957031 1 8.15625 4.957031 9.378907.738281.226562 1.480469.332031 2.214844.332031 3.203125 0 6.167968-2.066407 7.164062-5.289063 1.636719-5.3125 2.46875-10.847656 2.46875-16.453125v-23.769531c0-6.339844-5.160156-11.5-11.5-11.5h-17.921875c-16.261719 0-31.5625 7.132812-42.035156 19.140625-10.222656-11.722656-25.261719-19.140625-42-19.140625h-17.925781c-6.339844 0-11.5 5.160156-11.5 11.5v23.769531c0 30.730469 25.003906 55.730469 55.734375 55.730469h7.765625v41.5h-78.527344v-9.777344c0-18.15625-12.890625-33.355468-30-36.925781v-228.796875h10c18.472656 0 33.5-15.027344 33.5-33.5s-15.027344-33.5-33.5-33.5h-101c-18.472656 0-33.5 15.027344-33.5 33.5s15.027344 33.5 33.5 33.5h10v6.375c0 4.144531 3.359375 7.5 7.5 7.5s7.5-3.355469 7.5-7.5v-6.375h51v228h-51v-137.667969c0-4.140625-3.359375-7.5-7.5-7.5s-7.5 3.359375-7.5 7.5v138.464844c-17.109375 3.570313-30 18.769531-30 36.925781v9.777344h-79.414062v-41.5h8.652343c30.730469 0 55.730469-25 55.730469-55.730469v-23.769531c0-6.339844-5.15625-11.5-11.5-11.5h-17.917969c-16.265625 0-31.566406 7.132812-42.035156 19.140625-10.226563-11.722656-25.265625-19.140625-42.003906-19.140625h-17.925781c-6.339844 0-11.5 5.160156-11.5 11.5v23.769531c0 30.730469 25 55.730469 55.730468 55.730469h7.769532v41.5h-60.085938c-4.140625 0-7.5 3.355469-7.5 7.5s3.359375 7.5 7.5 7.5h450c4.140625 0 7.5-3.355469 7.5-7.5s-3.359375-7.5-7.5-7.5zm-124.472656-97.230469v-20.269531h14.425781c22.457031 0 40.730469 18.269531 40.730469 40.730469v20.269531h-14.421875c-22.460938 0-40.734375-18.269531-40.734375-40.730469zm-151.027344-193.269531c-10.199219 0-18.5-8.300781-18.5-18.5s8.300781-18.5 18.5-18.5h101c10.199219 0 18.5 8.300781 18.5 18.5s-8.300781 18.5-18.5 18.5zm-64.449219 173h14.417969v20.269531c0 22.460938-18.269531 40.730469-40.730469 40.730469h-2v-20.269531c0-8.3125-1.828125-16.207031-5.105469-23.296875 7.570313-10.839844 20.046876-17.433594 33.417969-17.433594zm-98.464843 20.269531v-20.269531h14.425781c22.457031 0 40.726562 18.269531 40.726562 40.730469v20.269531h-14.421875c-22.457031 0-40.730468-18.269531-40.730468-40.730469zm157.914062 97.230469v-9.777344c0-12.527344 10.191406-22.722656 22.722656-22.722656h65.554688c12.53125 0 22.722656 10.191406 22.722656 22.722656v9.777344zm0 0"/><path d="m136.789062 167.90625 4.714844 1.664062c3.910156 1.382813 8.191406-.675781 9.566406-4.574218 1.378907-3.90625-.667968-8.1875-4.574218-9.566406l-4.714844-1.664063c-3.90625-1.382813-8.191406.667969-9.566406 4.574219-1.378906 3.90625.667968 8.1875 4.574218 9.566406zm0 0"/><path d="m103.035156 155.996094 8.441406 2.976562c3.871094 1.371094 8.175782-.636718 9.566407-4.574218 1.378906-3.90625-.667969-8.1875-4.574219-9.570313l-8.4375-2.976563c-3.910156-1.382812-8.191406.667969-9.570312 4.574219-1.378907 3.90625.671874 8.191407 4.574218 9.570313zm0 0"/><path d="m69.285156 144.082031 8.4375 2.980469c3.875 1.367188 8.179688-.640625 9.570313-4.578125 1.378906-3.902344-.671875-8.1875-4.578125-9.566406l-8.4375-2.980469c-3.90625-1.378906-8.1875.671875-9.566406 4.578125-1.382813 3.90625.667968 8.1875 4.574218 9.566406zm0 0"/><path d="m35.53125 132.171875 8.441406 2.976563c3.871094 1.371093 8.175782-.640626 9.566406-4.574219 1.378907-3.90625-.667968-8.191407-4.574218-9.570313l-8.4375-2.976562c-3.910156-1.386719-8.191406.667968-9.570313 4.574218-1.378906 3.90625.671875 8.1875 4.574219 9.570313zm0 0"/><path d="m15.210938 109.09375-4.714844-1.664062c-3.90625-1.382813-8.191406.667968-9.566406 4.574218-1.378907 3.90625.667968 8.1875 4.574218 9.566406l4.714844 1.664063c3.914062 1.382813 8.191406-.675781 9.566406-4.574219 1.378906-3.90625-.667968-8.1875-4.574218-9.566406zm0 0"/><path d="m10.21875 253.765625-4.714844 1.664063c-3.90625 1.378906-5.953125 5.660156-4.574218 9.566406 1.378906 3.910156 5.664062 5.953125 9.566406 4.574218l4.714844-1.664062c3.90625-1.378906 5.953124-5.660156 4.574218-9.566406-1.375-3.90625-5.660156-5.949219-9.566406-4.574219zm0 0"/><path d="m74.277344 247.0625 8.4375-2.980469c3.90625-1.378906 5.957031-5.660156 4.574218-9.566406-1.378906-3.90625-5.660156-5.953125-9.566406-4.578125l-8.4375 2.980469c-3.90625 1.378906-5.957031 5.664062-4.578125 9.566406 1.378907 3.90625 5.660157 5.957031 9.570313 4.578125zm0 0"/><path d="m111.472656 218.023438-8.4375 2.980468c-3.90625 1.378906-5.953125 5.664063-4.574218 9.566406 1.378906 3.90625 5.65625 5.957032 9.566406 4.578126l8.441406-2.980469c3.902344-1.378907 5.953125-5.660157 4.574219-9.566407-1.378907-3.90625-5.660157-5.953124-9.570313-4.578124zm0 0"/><path d="m40.523438 258.972656 8.441406-2.976562c3.902344-1.378906 5.953125-5.664063 4.574218-9.570313-1.378906-3.90625-5.660156-5.949219-9.570312-4.574219l-8.4375 2.976563c-3.90625 1.382813-5.953125 5.664063-4.574219 9.570313 1.378907 3.902343 5.65625 5.953124 9.566407 4.574218zm0 0"/><path d="m141.503906 207.429688-4.714844 1.664062c-3.90625 1.378906-5.953124 5.660156-4.574218 9.566406 1.378906 3.910156 5.664062 5.953125 9.566406 4.574219l4.714844-1.664063c3.90625-1.378906 5.953125-5.660156 4.574218-9.566406-1.375-3.90625-5.660156-5.953125-9.566406-4.574218zm0 0"/><path d="m115 188.5c0 4.144531 3.359375 7.5 7.5 7.5h5c4.140625 0 7.5-3.355469 7.5-7.5s-3.359375-7.5-7.5-7.5h-5c-4.140625 0-7.5 3.355469-7.5 7.5zm0 0"/><path d="m75 188.5c0 4.144531 3.359375 7.5 7.5 7.5h10c4.140625 0 7.5-3.355469 7.5-7.5s-3.359375-7.5-7.5-7.5h-10c-4.140625 0-7.5 3.355469-7.5 7.5zm0 0"/><path d="m42.5 181c-4.140625 0-7.5 3.355469-7.5 7.5s3.359375 7.5 7.5 7.5h10c4.140625 0 7.5-3.355469 7.5-7.5s-3.359375-7.5-7.5-7.5zm0 0"/><path d="m7.5 196h5c4.140625 0 7.5-3.355469 7.5-7.5s-3.359375-7.5-7.5-7.5h-5c-4.140625 0-7.5 3.355469-7.5 7.5s3.359375 7.5 7.5 7.5zm0 0"/><path d="m370.496094 169.570312 4.714844-1.664062c3.90625-1.378906 5.953124-5.660156 4.574218-9.566406-1.375-3.90625-5.664062-5.953125-9.566406-4.574219l-4.714844 1.664063c-3.90625 1.378906-5.953125 5.660156-4.574218 9.566406 1.378906 3.910156 5.664062 5.953125 9.566406 4.574218zm0 0"/><path d="m400.523438 158.972656 8.441406-2.976562c3.902344-1.378906 5.953125-5.664063 4.574218-9.570313-1.378906-3.90625-5.660156-5.953125-9.570312-4.574219l-8.4375 2.976563c-3.90625 1.382813-5.953125 5.664063-4.574219 9.570313 1.378907 3.902343 5.65625 5.953124 9.566407 4.574218zm0 0"/><path d="m468.027344 135.148438 8.441406-2.980469c3.902344-1.378907 5.953125-5.660157 4.574219-9.566407-1.378907-3.90625-5.660157-5.953124-9.570313-4.578124l-8.4375 2.980468c-3.90625 1.378906-5.953125 5.664063-4.574218 9.566406 1.378906 3.90625 5.65625 5.957032 9.566406 4.578126zm0 0"/><path d="m434.277344 147.0625 8.4375-2.980469c3.90625-1.378906 5.957031-5.660156 4.574218-9.566406-1.378906-3.90625-5.660156-5.953125-9.566406-4.578125l-8.4375 2.980469c-3.90625 1.378906-5.957031 5.664062-4.578125 9.566406 1.378907 3.90625 5.660157 5.957031 9.570313 4.578125zm0 0"/><path d="m501.78125 123.234375 4.714844-1.664063c3.90625-1.378906 5.953125-5.660156 4.574218-9.566406-1.375-3.90625-5.660156-5.949218-9.566406-4.574218l-4.714844 1.664062c-3.90625 1.378906-5.953124 5.660156-4.574218 9.566406 1.378906 3.910156 5.664062 5.953125 9.566406 4.574219zm0 0"/><path d="m506.496094 255.429688-4.714844-1.664063c-3.90625-1.382813-8.191406.667969-9.566406 4.574219-1.378906 3.90625.667968 8.1875 4.574218 9.566406l4.714844 1.664062c3.910156 1.382813 8.191406-.675781 9.566406-4.574218 1.378907-3.90625-.667968-8.1875-4.574218-9.566406zm0 0"/><path d="m408.964844 221.003906-8.4375-2.980468c-3.910156-1.378907-8.191406.671874-9.570313 4.578124-1.378906 3.90625.671875 8.1875 4.574219 9.566407l8.441406 2.980469c3.871094 1.367187 8.175782-.640626 9.566406-4.578126 1.378907-3.902343-.667968-8.1875-4.574218-9.566406zm0 0"/><path d="m442.714844 232.917969-8.4375-2.980469c-3.90625-1.382812-8.1875.671875-9.566406 4.578125-1.382813 3.902344.667968 8.1875 4.574218 9.566406l8.4375 2.980469c3.875 1.367188 8.179688-.640625 9.570313-4.578125 1.378906-3.90625-.671875-8.1875-4.578125-9.566406zm0 0"/><path d="m476.46875 244.828125-8.4375-2.976563c-3.910156-1.382812-8.191406.667969-9.570312 4.574219-1.378907 3.90625.671874 8.1875 4.574218 9.566407l8.441406 2.980468c3.871094 1.371094 8.175782-.640625 9.566407-4.574218 1.378906-3.90625-.667969-8.191407-4.574219-9.570313zm0 0"/><path d="m365.503906 221.570312 4.714844 1.664063c3.914062 1.382813 8.191406-.675781 9.566406-4.574219 1.378906-3.90625-.667968-8.1875-4.574218-9.566406l-4.714844-1.664062c-3.90625-1.382813-8.191406.667968-9.566406 4.574218-1.378907 3.90625.667968 8.1875 4.574218 9.566406zm0 0"/><path d="m377 188.5c0 4.144531 3.359375 7.5 7.5 7.5h5c4.140625 0 7.5-3.355469 7.5-7.5s-3.359375-7.5-7.5-7.5h-5c-4.140625 0-7.5 3.355469-7.5 7.5zm0 0"/><path d="m419.5 196h10c4.140625 0 7.5-3.355469 7.5-7.5s-3.359375-7.5-7.5-7.5h-10c-4.140625 0-7.5 3.355469-7.5 7.5s3.359375 7.5 7.5 7.5zm0 0"/><path d="m459.5 196h10c4.140625 0 7.5-3.355469 7.5-7.5s-3.359375-7.5-7.5-7.5h-10c-4.140625 0-7.5 3.355469-7.5 7.5s3.359375 7.5 7.5 7.5zm0 0"/><path d="m504.5 181h-5c-4.140625 0-7.5 3.355469-7.5 7.5s3.359375 7.5 7.5 7.5h5c4.140625 0 7.5-3.355469 7.5-7.5s-3.359375-7.5-7.5-7.5zm0 0"/><path d="m288.792969 74.480469c2.503906-3.300781 1.855469-8.003907-1.445313-10.507813-9.082031-6.890625-19.910156-10.53125-31.3125-10.53125-11.433594 0-22.289062 3.660156-31.394531 10.589844-3.292969 2.507812-3.933594 7.214844-1.421875 10.511719 1.472656 1.9375 3.710938 2.957031 5.972656 2.957031 1.582032 0 3.179688-.5 4.535156-1.53125 6.46875-4.925781 14.183594-7.527344 22.308594-7.527344 8.101563 0 15.796875 2.585938 22.25 7.480469 3.296875 2.503906 8 1.859375 10.507813-1.441406zm0 0"/><path d="m301.378906 51.59375c2.503906-3.296875 1.859375-8.003906-1.441406-10.507812-12.742188-9.667969-27.925781-14.777344-43.902344-14.777344-16.019531 0-31.226562 5.128906-43.980468 14.839844-3.296876 2.507812-3.933594 7.214843-1.425782 10.511718 1.476563 1.9375 3.710938 2.957032 5.972656 2.957032 1.582032 0 3.179688-.5 4.539063-1.53125 10.121094-7.707032 22.1875-11.777344 34.894531-11.777344 12.675782 0 24.722656 4.054687 34.835938 11.726562 3.296875 2.503906 8.003906 1.859375 10.507812-1.441406zm0 0"/><path d="m204.503906 32.386719c1.585938 0 3.179688-.5 4.539063-1.53125 13.625-10.375 29.875-15.855469 46.992187-15.855469 17.082032 0 33.3125 5.464844 46.929688 15.804688 3.296875 2.507812 8.003906 1.863281 10.507812-1.4375 2.503906-3.296876 1.863282-8.003907-1.4375-10.507813-16.246094-12.339844-35.613281-18.859375-56-18.859375-20.425781 0-39.820312 6.542969-56.078125 18.917969-3.296875 2.507812-3.933593 7.214843-1.425781 10.511719 1.476562 1.9375 3.710938 2.957031 5.972656 2.957031zm0 0"/><path d="m256 142.5c4.140625 0 7.5-3.355469 7.5-7.5v-12.257812c9.011719-3.113282 15.5-11.683594 15.5-21.742188 0-12.683594-10.316406-23-23-23s-23 10.316406-23 23c0 10.058594 6.488281 18.628906 15.5 21.742188v12.257812c0 4.144531 3.359375 7.5 7.5 7.5zm0-49.5c4.410156 0 8 3.589844 8 8s-3.589844 8-8 8-8-3.589844-8-8 3.589844-8 8-8zm0 0"/></svg>