<?xml version="1.0" encoding="UTF-8" standalone="no"?>
<svg
   xmlns:dc="http://purl.org/dc/elements/1.1/"
   xmlns:cc="http://creativecommons.org/ns#"
   xmlns:rdf="http://www.w3.org/1999/02/22-rdf-syntax-ns#"
   xmlns:svg="http://www.w3.org/2000/svg"
   xmlns="http://www.w3.org/2000/svg"
   xmlns:sodipodi="http://sodipodi.sourceforge.net/DTD/sodipodi-0.dtd"
   xmlns:inkscape="http://www.inkscape.org/namespaces/inkscape"
   id="Capa_1"
   enable-background="new 0 0 512 512"
   height="512"
   viewBox="0 0 512 512"
   width="512"
   version="1.1"
   sodipodi:docname="blocked_hose.svg"
   inkscape:version="1.0.2 (e86c870879, 2021-01-15, custom)">
  <metadata
     id="metadata30">
    <rdf:RDF>
      <cc:Work
         rdf:about="">
        <dc:format>image/svg+xml</dc:format>
        <dc:type
           rdf:resource="http://purl.org/dc/dcmitype/StillImage" />
      </cc:Work>
    </rdf:RDF>
  </metadata>
  <defs
     id="defs28">
    <inkscape:path-effect
       effect="simplify"
       id="path-effect1003"
       is_visible="true"
       lpeversion="1"
       steps="1"
       threshold="0.000408163"
       smooth_angles="360"
       helper_size="0"
       simplify_individual_paths="false"
       simplify_just_coalesce="false" />
    <inkscape:path-effect
       effect="simplify"
       id="path-effect999"
       is_visible="true"
       lpeversion="1"
       steps="1"
       threshold="0.000408163"
       smooth_angles="360"
       helper_size="0"
       simplify_individual_paths="false"
       simplify_just_coalesce="false" />
  </defs>
  <sodipodi:namedview
     pagecolor="#ffffff"
     bordercolor="#666666"
     borderopacity="1"
     objecttolerance="10"
     gridtolerance="10"
     guidetolerance="10"
     inkscape:pageopacity="0"
     inkscape:pageshadow="2"
     inkscape:window-width="3840"
     inkscape:window-height="2066"
     id="namedview26"
     showgrid="false"
     inkscape:zoom="1.96875"
     inkscape:cx="256"
     inkscape:cy="256"
     inkscape:window-x="-11"
     inkscape:window-y="-11"
     inkscape:window-maximized="1"
     inkscape:current-layer="Capa_1" />
  <g
     id="_x30_02---Sprinklers">
    <path
       id="Shape_32_"
       d="m 435.2,324.267 h -10.906 c -3.024,-5.263 -8.624,-8.515 -14.694,-8.533 v -17.067 c 0,-9.426 -7.641,-17.067 -17.067,-17.067 h -17.067 c -9.426,0 -17.067,7.641 -17.067,17.067 v 17.067 c -6.07,0.018 -11.67,3.27 -14.694,8.533 H 110.933 c -14.138,0 -25.6,-11.462 -25.6,-25.6 0,-14.138 11.462,-25.6 25.6,-25.6 h 36.506 c 3.024,5.263 8.624,8.515 14.694,8.533 h 51.2 c 6.07,-0.018 11.67,-3.27 14.694,-8.533 h 62.106 c 14.138,0 25.6,-11.462 25.6,-25.6 0,-14.138 -11.462,-25.6 -25.6,-25.6 h -62.106 c -3.024,-5.263 -8.624,-8.515 -14.694,-8.533 v -17.067 c 0,-9.426 -7.641,-17.067 -17.067,-17.067 H 179.2 c -9.426,0 -17.067,7.641 -17.067,17.067 v 17.067 c -6.07,0.018 -11.67,3.27 -14.694,8.533 h -36.506 c -42.415,0 -76.8,34.385 -76.8,76.8 0,42.415 34.385,76.8 76.8,76.8 h 232.772 c 3.024,5.263 8.624,8.515 14.694,8.533 h 51.2 c 6.07,-0.018 11.67,-3.27 14.694,-8.533 H 435.2 c 14.138,0 25.6,11.462 25.6,25.6 0,14.138 -11.462,25.6 -25.6,25.6 H 125.628 c -3.024,-5.263 -8.624,-8.515 -14.694,-8.533 V 401.067 C 110.934,391.641 103.293,384 93.867,384 H 76.8 c -9.426,0 -17.067,7.641 -17.067,17.067 v 17.067 c -6.07,0.018 -11.67,3.27 -14.694,8.533 H 25.6 c -14.138,0 -25.6,11.462 -25.6,25.6 0,14.138 11.462,25.6 25.6,25.6 h 19.439 c 3.024,5.263 8.624,8.515 14.694,8.533 h 51.2 c 6.07,-0.018 11.67,-3.27 14.694,-8.533 H 435.2 c 42.415,0 76.8,-34.385 76.8,-76.8 0,-42.415 -34.385,-76.8 -76.8,-76.8 z m -59.733,-25.6 h 17.067 v 17.067 h -17.067 z m -76.8,-51.2 c 0,4.713 -3.821,8.533 -8.533,8.533 H 230.4 v -17.067 h 59.733 c 4.713,0 8.534,3.821 8.534,8.534 z M 179.2,196.267 h 17.067 v 17.067 H 179.2 Z m -8.533,34.133 h 42.667 v 34.133 h -51.2 V 230.4 Z M 51.2,298.667 c 0.038,-32.974 26.759,-59.696 59.733,-59.733 h 34.133 V 256 h -34.133 c -23.564,0 -42.667,19.103 -42.667,42.667 0,23.564 19.103,42.667 42.667,42.667 h 230.4 V 358.4 h -230.4 C 77.959,358.362 51.238,331.641 51.2,298.667 Z m 307.2,68.266 V 332.8 h 51.2 v 34.133 z M 76.8,401.067 h 17.067 v 17.067 H 76.8 Z m -59.733,51.2 c 0,-4.713 3.821,-8.533 8.533,-8.533 H 42.667 V 460.8 H 25.6 c -4.713,0 -8.533,-3.82 -8.533,-8.533 z m 42.666,17.066 V 435.2 h 51.2 v 34.133 z M 435.2,460.8 H 128 v -17.067 h 307.2 c 23.564,0 42.667,-19.103 42.667,-42.667 0,-23.564 -19.103,-42.667 -42.667,-42.667 h -8.533 v -17.067 h 8.533 c 32.99,0 59.733,26.744 59.733,59.733 0,32.989 -26.743,59.735 -59.733,59.735 z" />
    <path
       id="Shape_31_"
       d="m 187.733,162.133 c 4.713,0 8.533,-3.821 8.533,-8.533 v -17.067 c 0,-4.713 -3.821,-8.533 -8.533,-8.533 -4.713,0 -8.533,3.821 -8.533,8.533 V 153.6 c 0,4.713 3.821,8.533 8.533,8.533 z" />
    <path
       id="Shape_28_"
       d="m 154.743,157.867 c 1.513,2.662 4.337,4.309 7.399,4.316 3.062,0.007 5.893,-1.628 7.418,-4.283 1.525,-2.655 1.511,-5.924 -0.038,-8.566 l -8.533,-14.78 c -1.513,-2.662 -4.337,-4.309 -7.399,-4.316 -3.062,-0.007 -5.893,1.628 -7.418,4.283 -1.525,2.655 -1.511,5.924 0.038,8.566 z" />
    <path
       id="Shape_25_"
       d="m 209.067,160.99 c 4.081,2.356 9.3,0.958 11.657,-3.123 l 8.533,-14.78 c 1.549,-2.642 1.563,-5.911 0.038,-8.566 -1.525,-2.655 -4.356,-4.29 -7.418,-4.283 -3.062,0.007 -5.886,1.654 -7.399,4.316 l -8.533,14.78 c -2.358,4.081 -0.96,9.299 3.122,11.656 z" />
    <path
       id="Shape_22_"
       d="m 384,273.067 c 4.713,0 8.533,-3.82 8.533,-8.533 v -17.067 c 0,-4.713 -3.82,-8.533 -8.533,-8.533 -4.713,0 -8.533,3.821 -8.533,8.533 v 17.067 c 0,4.712 3.82,8.533 8.533,8.533 z" />
    <path
       id="Shape_21_"
       d="m 384,221.867 c 4.713,0 8.533,-3.821 8.533,-8.533 v -17.067 c 0,-4.713 -3.82,-8.533 -8.533,-8.533 -4.713,0 -8.533,3.821 -8.533,8.533 v 17.067 c 0,4.712 3.82,8.533 8.533,8.533 z" />
    <path
       id="Shape_20_"
       d="m 384,170.667 c 4.713,0 8.533,-3.821 8.533,-8.533 v -17.067 c 0,-4.713 -3.82,-8.533 -8.533,-8.533 -4.713,0 -8.533,3.821 -8.533,8.533 v 17.067 c 0,4.712 3.82,8.533 8.533,8.533 z" />
    <path
       id="Shape_19_"
       d="m 351.01,268.8 c 2.372,4.047 7.566,5.42 11.628,3.074 4.062,-2.345 5.47,-7.53 3.151,-11.608 l -8.533,-14.78 c -1.514,-2.662 -4.337,-4.309 -7.399,-4.316 -3.062,-0.007 -5.893,1.628 -7.418,4.283 -1.525,2.655 -1.511,5.924 0.038,8.566 z" />
    <path
       id="Shape_14_"
       d="m 325.41,224.427 c 1.514,2.662 4.337,4.309 7.399,4.316 3.062,0.007 5.893,-1.628 7.418,-4.283 1.525,-2.655 1.511,-5.924 -0.038,-8.566 l -8.533,-14.78 c -1.514,-2.662 -4.337,-4.309 -7.399,-4.316 -3.062,-0.007 -5.893,1.628 -7.418,4.283 -1.525,2.655 -1.511,5.924 0.038,8.566 z" />
    <path
       id="Shape_15_"
       d="m 299.81,180.122 c 2.372,4.047 7.566,5.42 11.628,3.074 4.062,-2.345 5.47,-7.53 3.151,-11.608 L 306.056,156.8 c -1.513,-2.662 -4.337,-4.309 -7.399,-4.316 -3.062,-0.007 -5.893,1.628 -7.418,4.283 -1.525,2.655 -1.511,5.924 0.038,8.566 z" />
    <path
       id="Shape_16_"
       d="m 405.333,271.923 c 4.081,2.356 9.3,0.958 11.657,-3.123 l 8.533,-14.78 c 2.318,-4.078 0.911,-9.262 -3.151,-11.608 -4.062,-2.345 -9.256,-0.972 -11.628,3.074 l -8.533,14.78 c -2.357,4.082 -0.959,9.301 3.122,11.657 z" />
    <path
       id="Shape_17_"
       d="m 430.933,227.584 c 4.081,2.356 9.3,0.958 11.657,-3.123 l 8.533,-14.78 c 2.318,-4.078 0.911,-9.262 -3.151,-11.608 -4.062,-2.346 -9.256,-0.972 -11.628,3.074 l -8.533,14.78 c -2.357,4.082 -0.959,9.301 3.122,11.657 z" />
    <path
       id="Shape_18_"
       d="m 456.533,183.245 c 4.081,2.356 9.3,0.958 11.657,-3.123 l 8.533,-14.788 c 2.318,-4.078 0.911,-9.262 -3.151,-11.608 -4.062,-2.345 -9.256,-0.972 -11.628,3.074 l -8.533,14.788 c -2.357,4.082 -0.959,9.3 3.122,11.657 z" />
  </g>
  <ellipse
     style="font-variation-settings:normal;opacity:1;vector-effect:none;fill:none;fill-opacity:1;fill-rule:evenodd;stroke:#000000;stroke-width:30;stroke-linecap:butt;stroke-linejoin:miter;stroke-miterlimit:4;stroke-dasharray:none;stroke-dashoffset:0;stroke-opacity:1;stop-color:#000000;stop-opacity:1"
     id="path1005"
     cx="64.507935"
     cy="305.77777"
     rx="3.0476191"
     ry="16.761906" />
</svg>
