<svg id="Capa_1" enable-background="new 0 0 512 512" height="512" viewBox="0 0 512 512" width="512" xmlns="http://www.w3.org/2000/svg"><g><path d="m437.02 74.98c-48.353-48.351-112.64-74.98-181.02-74.98s-132.667 26.629-181.02 74.98-74.98 112.639-74.98 181.02 26.628 132.668 74.98 181.02 112.64 74.98 181.02 74.98 132.667-26.629 181.02-74.98 74.98-112.639 74.98-181.02-26.628-132.668-74.98-181.02zm-407.02 181.02c0-124.617 101.383-226 226-226 56.922 0 108.988 21.162 148.767 56.02l-68.778 68.778c-14.336-22.318-37.752-38.27-64.989-42.609v-26.189c0-8.284-6.716-15-15-15s-15 6.716-15 15v26.188c-45.281 7.214-80 46.532-80 93.812v28.958c0 27.856-12.476 53.813-34.228 71.215-.022.018-.044.035-.066.053-9.982 8.016-15.706 19.952-15.706 32.758 0 11.276 4.473 21.521 11.728 29.075l-36.708 36.709c-34.858-39.779-56.02-91.846-56.02-148.768zm152.213 95 138.787-138.787v22.745c0 37.002 16.561 71.479 45.442 94.605.016.013.032.025.048.038 2.866 2.293 4.51 5.713 4.51 9.383 0 6.625-5.39 12.016-12.016 12.016zm116.207 30c-6.192 17.459-22.865 30-42.42 30s-36.228-12.541-42.42-30zm-42.42-240c25.328 0 47.303 14.571 58.025 35.762l-170.079 170.08c-1.83-2.109-2.946-4.853-2.946-7.857 0-3.67 1.644-7.09 4.51-9.383.016-.013.031-.025.047-.038 28.881-23.126 45.443-57.604 45.443-94.606v-28.958c0-35.841 29.159-65 65-65zm0 341c-56.922 0-108.988-21.162-148.767-56.02l45-45c.261.005.52.02.783.02h29.494c6.968 34.192 37.271 60 73.491 60s66.522-25.808 73.491-60h29.494c23.166 0 42.014-18.848 42.014-42.016 0-12.807-5.723-24.741-15.706-32.758-.022-.019-.044-.036-.067-.054-21.751-17.401-34.227-43.358-34.227-71.214v-28.958c0-7.344-.838-14.495-2.423-21.364l77.403-77.404c34.858 39.779 56.02 91.846 56.02 148.768 0 124.617-101.383 226-226 226z"/></g></svg>