<svg height="511pt" viewBox="-1 0 511 511.99994" width="511pt" xmlns="http://www.w3.org/2000/svg"><path d="m32.980469 125.476562c-4.9375-23.839843 1.207031-48.148437 16.855469-66.703124 13.121093-15.558594-10.414063-35.433594-23.546876-19.859376-21.785156 25.828126-30.339843 59.65625-23.46875 92.8125 4.179688 20.171876 34.289063 13.675782 30.160157-6.25zm0 0"/><path d="m32.066406 186.269531c39.53125 40.070313 102.125 43.296875 145.464844 9.234375 16-12.574218-3.011719-36.808594-19.03125-24.21875-31.164062 24.488282-76.136719 22.109375-104.503906-6.648437-14.324219-14.511719-36.214844 7.152343-21.929688 21.632812zm0 0"/><path d="m109.96875 30.804688c52.953125 0 90.988281 51.652343 74.988281 102.324218-6.152343 19.488282 23.21875 28.761719 29.375 9.273438 22.332031-70.71875-30.863281-142.402344-104.363281-142.402344-20.355469 0-20.375 30.804688 0 30.804688zm0 0"/><path d="m119 136.472656h-34.027344c-20.351562 0-20.371094 30.800782 0 30.800782h34.027344c29.664062 0 47.082031-33.667969 29.820312-57.847657 17.226563-24.132812-.109374-57.847656-29.820312-57.847656h-34.027344c-20.351562 0-20.371094 30.800781 0 30.800781h34.027344c7.695312 0 7.695312 11.644532 0 11.644532h-34.027344c-20.351562 0-20.371094 30.804687 0 30.804687h34.027344c7.695312 0 7.695312 11.644531 0 11.644531zm0 0"/><path d="m399.726562 188.929688c-43.597656 0-79.0625-35.472657-79.0625-79.058594 0-43.597656 35.464844-79.0625 79.0625-79.0625 66.457032 0 102.898438 77.269531 61.65625 128.550781-12.78125 15.894531 11.175782 35.273437 24.007813 19.304687 57.476563-71.507812 6.480469-178.66015575-85.664063-178.66015575-60.582031 0-109.863281 49.28515575-109.863281 109.86718775 0 60.578125 49.28125 109.863281 109.863281 109.863281 20.5625 0 20.183594-30.804687 0-30.804687zm0 0"/><path d="m410.230469 93.964844h-6.046875c-27.117188 0-49.183594 22.066406-49.183594 49.183594v9.90625c0 8.503906 6.898438 15.402343 15.402344 15.402343h58.648437c20.339844 0 20.390625-30.800781 0-30.800781h-42.40625c2.339844-7.457031 9.324219-12.886719 17.539063-12.886719h6.046875c18.871093 0 34.222656-15.347656 34.222656-34.210937v-6.046875c0-18.875-15.351563-34.222657-34.222656-34.222657h-39.828125c-20.351563 0-20.382813 30.800782 0 30.800782h39.828125c1.886719 0 3.417969 1.53125 3.417969 3.421875v6.046875c0 1.875-1.53125 3.40625-3.417969 3.40625zm0 0"/><path d="m142.652344 240.597656c-101.925782 101.925782-25.523438 275.820313 117.371094 271.316406 20.457031-.644531 19.34375-31.402343-.953126-30.792968-115.75 3.558594-176.425781-136.941406-94.640624-218.746094 24.210937-24.199219 56.402343-37.539062 90.632812-37.539062 113.332031 0 171.421875 138.019531 90.632812 218.808593-14.425781 14.425781 7.296876 36.257813 21.78125 21.777344 99.703126-99.6875 28.953126-270.441406-111.417968-271.308594-41.039063-.253906-82.160156 15.242188-113.40625 46.484375zm0 0"/><path d="m173.320312 353.011719c0-20.429688-30.800781-20.464844-30.800781 0 0 62.058593 50.488281 112.542969 112.542969 112.542969 62.058594 0 112.546875-50.488282 112.546875-112.542969 0-102.023438-125.242187-150.816407-194.566406-77.0625-14.039063 14.929687 8.53125 35.914062 22.445312 21.101562 50.542969-53.800781 141.316407-17.789062 141.316407 55.960938 0 45.074219-36.664063 81.738281-81.742188 81.738281-45.074219 0-81.742188-36.664062-81.742188-81.738281zm0 0"/><path d="m228.234375 385.292969c-20.339844 0-20.390625 30.800781 0 30.800781h52.835937c20.351563 0 20.382813-30.800781 0-30.800781h-10.605468v-81.054688c0-12.503906-14.1875-19.832031-24.394532-12.507812l-26.832031 19.292969c-16.515625 11.898437 1.433594 36.894531 17.988281 25.015624l2.433594-1.757812v51.011719zm0 0"/><path d="m74.972656 252.285156c-14.390625-14.390625-36.1875 7.375-21.78125 21.78125l13.03125 13.03125c14.273438 14.273438 36.371094-7.191406 21.78125-21.78125zm0 0"/><path d="m66.222656 428.429688-11.929687 11.933593c-14.664063 14.664063 7.683593 35.878907 21.78125 21.78125l11.929687-11.933593c14.417969-14.417969-7.398437-36.164063-21.78125-21.78125zm0 0"/><path d="m62.765625 342.085938h-34.328125c-20.351562 0-20.375 30.804687 0 30.804687h34.328125c20.351563 0 20.375-30.804687 0-30.804687zm0 0"/><path d="m443.902344 287.097656 13.03125-13.03125c14.417968-14.417968-7.398438-36.167968-21.78125-21.78125l-13.03125 13.03125c-14.390625 14.390625 7.433594 36.128906 21.78125 21.78125zm0 0"/><path d="m443.902344 428.429688c-14.390625-14.390626-36.1875 7.375-21.78125 21.78125l11.933594 11.933593c14.269531 14.273438 36.371093-7.191406 21.78125-21.78125zm0 0"/><path d="m481.691406 342.085938h-34.332031c-20.351563 0-20.371094 30.804687 0 30.804687h34.332031c20.351563 0 20.371094-30.804687 0-30.804687zm0 0"/></svg>