<svg id="Capa_1" enable-background="new 0 0 512 512" height="512" viewBox="0 0 512 512" width="512" xmlns="http://www.w3.org/2000/svg"><g><path d="m256 266c8.284 0 15-6.716 15-15v-30c0-8.284-6.716-15-15-15s-15 6.716-15 15v30c0 8.284 6.716 15 15 15z"/><path d="m256 176c8.284 0 15-6.716 15-15v-30c0-8.284-6.716-15-15-15s-15 6.716-15 15v30c0 8.284 6.716 15 15 15z"/><path d="m256 86c8.284 0 15-6.716 15-15v-30c0-8.284-6.716-15-15-15s-15 6.716-15 15v30c0 8.284 6.716 15 15 15z"/><path d="m310.87 265.095c1.693.617 3.425.909 5.129.909 6.126 0 11.88-3.783 14.097-9.874l10.261-28.191c2.833-7.785-1.181-16.392-8.966-19.226-7.781-2.834-16.392 1.18-19.226 8.965l-10.261 28.191c-2.833 7.785 1.181 16.393 8.966 19.226z"/><path d="m341.652 180.523c1.693.616 3.426.908 5.129.908 6.127 0 11.88-3.783 14.097-9.874l10.26-28.191c2.833-7.785-1.181-16.392-8.966-19.226-7.786-2.833-16.393 1.181-19.226 8.966l-10.26 28.191c-2.832 7.786 1.181 16.393 8.966 19.226z"/><path d="m372.434 95.951c1.693.617 3.425.909 5.129.909 6.126 0 11.88-3.783 14.097-9.874l10.261-28.191c2.833-7.785-1.181-16.392-8.966-19.226-7.781-2.833-16.393 1.179-19.226 8.965l-10.261 28.191c-2.833 7.785 1.18 16.393 8.966 19.226z"/><path d="m171.644 227.939 10.261 28.191c2.218 6.091 7.97 9.874 14.097 9.874 1.703 0 3.436-.292 5.129-.909 7.785-2.833 11.799-11.441 8.966-19.226l-10.261-28.191c-2.835-7.785-11.442-11.8-19.226-8.965-7.786 2.834-11.799 11.442-8.966 19.226z"/><path d="m140.862 143.367 10.26 28.191c2.217 6.092 7.969 9.874 14.097 9.874 1.703 0 3.436-.292 5.129-.908 7.785-2.833 11.799-11.441 8.966-19.226l-10.26-28.191c-2.833-7.785-11.44-11.797-19.226-8.966-7.785 2.834-11.799 11.441-8.966 19.226z"/><path d="m120.341 86.986c2.218 6.091 7.97 9.874 14.097 9.874 1.703 0 3.436-.292 5.129-.909 7.785-2.833 11.799-11.441 8.966-19.226l-10.261-28.191c-2.835-7.785-11.441-11.802-19.226-8.965-7.785 2.833-11.799 11.441-8.966 19.226z"/><path d="m497 276h-60c-8.284 0-15 6.716-15 15v15h-141c-5.919 0-11.284 3.48-13.697 8.885l-11.303 25.319-11.303-25.318c-2.413-5.406-7.778-8.886-13.697-8.886h-141v-15c0-8.284-6.716-15-15-15h-60c-8.284 0-15 6.716-15 15v180c0 8.284 6.716 15 15 15h60c8.284 0 15-6.716 15-15v-15h332v15c0 8.284 6.716 15 15 15h60c8.284 0 15-6.716 15-15v-180c0-8.284-6.716-15-15-15zm-437 180h-30v-150h30zm30-30v-90h131.27l21.033 47.115c2.413 5.405 7.778 8.885 13.697 8.885s11.284-3.48 13.697-8.885l21.033-47.115h131.27v90zm392 30h-30v-150h30z"/></g></svg>