<svg height="512pt" viewBox="-16 0 512 512" width="512pt" xmlns="http://www.w3.org/2000/svg"><path d="m469.984375 158.535156-64.984375-112.53125-37.867188 65.574219c-28.359374-23.171875-61.589843-38.875-97.132812-46.070313v-35.507812h30v-30h-150v30h30v35.480469c-101.71875 20.542969-180 110.648437-180 220.519531 0 124.617188 100.933594 226 225 226s225-101.382812 225-226c0-9.605469-.617188-19.230469-1.824219-28.730469 32.34375-22.859375 40.816407-65.824219 21.808594-98.734375zm-259.984375-128.535156h30v31.503906c-4.972656-.328125-9.972656-.503906-15-.503906s-10.027344.179688-15 .503906zm15 452c-107.523438 0-195-87.925781-195-196 0-107.523438 87.476562-195 195-195 46.945312 0 91.566406 16.597656 126.902344 46.953125l-11.886719 20.582031c-28.613281 49.535156 7.121094 112.464844 64.984375 112.464844 4.894531 0 9.679688-.488281 14.3125-1.386719.453125 5.445313.6875 10.917969.6875 16.386719 0 108.074219-87.476562 196-195 196zm180-241c-34.707031 0-56.164062-37.75-39.003906-67.460938l39.003906-67.542968 39.007812 67.542968c17.183594 29.761719-4.347656 67.460938-39.007812 67.460938zm0 0"/><path d="m270 286c0-19.554688-12.539062-36.226562-30-42.421875v-122.578125h-15c-90.980469 0-165 74.019531-165 165s74.019531 165 165 165c50.359375 0 97.320312-22.566406 128.84375-61.914062l9.382812-11.714844-95.734374-76.585938c1.617187-4.632812 2.507812-9.605468 2.507812-14.785156zm-45-15c8.269531 0 15 6.730469 15 15s-6.730469 15-15 15-15-6.730469-15-15 6.730469-15 15-15zm95.402344 110.53125c-21.699219 21.722656-49.917969 35.273438-80.402344 38.632812v-29.164062h-30v29.160156c-62.480469-6.9375-112.222656-56.679687-119.160156-119.160156h29.160156v-30h-29.164062c6.9375-62.480469 56.683593-112.234375 119.164062-119.171875v91.75c-17.460938 6.195313-30 22.867187-30 42.421875 0 24.8125 20.1875 45 45 45 8.710938 0 16.84375-2.496094 23.742188-6.796875zm0 0"/></svg>