<?xml version="1.0" encoding="UTF-8" standalone="no"?>
<svg
   xmlns:dc="http://purl.org/dc/elements/1.1/"
   xmlns:cc="http://creativecommons.org/ns#"
   xmlns:rdf="http://www.w3.org/1999/02/22-rdf-syntax-ns#"
   xmlns:svg="http://www.w3.org/2000/svg"
   xmlns="http://www.w3.org/2000/svg"
   xmlns:sodipodi="http://sodipodi.sourceforge.net/DTD/sodipodi-0.dtd"
   xmlns:inkscape="http://www.inkscape.org/namespaces/inkscape"
   height="512pt"
   viewBox="-16 0 512 512"
   width="512pt"
   version="1.1"
   id="svg6"
   sodipodi:docname="time_elapsed.svg"
   inkscape:version="1.0.2 (e86c870879, 2021-01-15, custom)">
  <metadata
     id="metadata12">
    <rdf:RDF>
      <cc:Work
         rdf:about="">
        <dc:format>image/svg+xml</dc:format>
        <dc:type
           rdf:resource="http://purl.org/dc/dcmitype/StillImage" />
        <dc:title></dc:title>
      </cc:Work>
    </rdf:RDF>
  </metadata>
  <defs
     id="defs10" />
  <sodipodi:namedview
     pagecolor="#ffffff"
     bordercolor="#666666"
     borderopacity="1"
     objecttolerance="10"
     gridtolerance="10"
     guidetolerance="10"
     inkscape:pageopacity="0"
     inkscape:pageshadow="2"
     inkscape:window-width="3840"
     inkscape:window-height="2066"
     id="namedview8"
     showgrid="false"
     inkscape:zoom="1.4765625"
     inkscape:cx="341.33333"
     inkscape:cy="341.33333"
     inkscape:window-x="-11"
     inkscape:window-y="-11"
     inkscape:window-maximized="1"
     inkscape:current-layer="svg6" />
  <path
     d="M -0.48481096,158.53516 64.499564,46.003906 102.36675,111.57812 C 130.72613,88.40625 163.95659,72.703125 199.49956,65.507812 V 30 h -30 V 0 h 150 v 30 h -30 v 35.480469 c 101.71875,20.542969 180,110.648441 180,220.519531 0,124.61719 -100.93359,226 -225,226 -124.0664,0 -224.999996,-101.38281 -224.999996,-226 0,-9.60547 0.617188,-19.23047 1.824219,-28.73047 -32.34375,-22.85937 -40.816407,-65.82422 -21.80859396,-98.73437 z M 259.49956,30 h -30 V 61.503906 C 234.47222,61.175781 239.47222,61 244.49956,61 c 5.02735,0 10.02735,0.179688 15,0.503906 z m -15,452 c 107.52344,0 195,-87.92578 195,-196 0,-107.52344 -87.47656,-195 -195,-195 -46.94531,0 -91.5664,16.59766 -126.90234,46.95312 l 11.88672,20.58204 C 158.09722,208.07031 122.36284,271 64.499564,271 c -4.894531,0 -9.679688,-0.48828 -14.3125,-1.38672 -0.453125,5.44531 -0.6875,10.91797 -0.6875,16.38672 0,108.07422 87.476566,196 194.999996,196 z M 64.499564,241 c 34.707026,0 56.164066,-37.75 39.003906,-67.46094 L 64.499564,105.99609 25.491752,173.53906 C 8.308158,203.30078 29.839408,241 64.499564,241 Z m 0,0"
     id="path2" />
  <path
     d="m 199.72656,286 c 0,-19.55469 12.53906,-36.22656 30,-42.42188 V 121 h 15 c 90.98047,0 165,74.01953 165,165 0,90.98047 -74.01953,165 -165,165 -50.35937,0 -97.32031,-22.56641 -128.84375,-61.91406 L 106.5,377.37109 202.23437,300.78516 C 200.61719,296.15234 199.72656,291.17969 199.72656,286 Z m 45,-15 c -8.26953,0 -15,6.73047 -15,15 0,8.26953 6.73047,15 15,15 8.26953,0 15,-6.73047 15,-15 0,-8.26953 -6.73047,-15 -15,-15 z m -95.40234,110.53125 c 21.69922,21.72266 49.91797,35.27344 80.40234,38.63281 V 391 h 30 v 29.16016 C 322.20703,413.22266 371.94922,363.48047 378.88672,301 h -29.16016 v -30 h 29.16406 C 371.95312,208.51953 322.20703,158.76562 259.72656,151.82812 v 91.75 c 17.46094,6.19532 30,22.86719 30,42.42188 0,24.8125 -20.1875,45 -45,45 -8.71094,0 -16.84375,-2.49609 -23.74219,-6.79688 z m 0,0"
     id="path4" />
</svg>
