<svg id="Layer_3" enable-background="new 0 0 64 64" height="512" viewBox="0 0 64 64" width="512" xmlns="http://www.w3.org/2000/svg"><circle cx="41" cy="1.5" r="1"/><g><circle cx="54.969" cy="13" r="1"/><circle cx="58.937" cy="12.5" r="1"/><circle cx="62.906" cy="12" r="1"/></g><g><circle cx="27.031" cy="13" r="1"/><circle cx="23.063" cy="12.5" r="1"/><circle cx="19.094" cy="12" r="1"/></g><circle cx="57.485" cy="5.015" r="1"/><circle cx="24.515" cy="5.015" r="1"/><path d="m28.05 7.136c-.391-.391-1.023-.391-1.414 0s-.391 1.023 0 1.414l5.657 5.657c.195.195.451.293.707.293s.512-.098.707-.293c.391-.391.391-1.023 0-1.414z"/><path d="m41 14.5c.552 0 1-.448 1-1v-8c0-.552-.448-1-1-1s-1 .448-1 1v8c0 .552.448 1 1 1z"/><path d="m49.707 14.207 5.657-5.657c.391-.391.391-1.023 0-1.414s-1.023-.391-1.414 0l-5.657 5.657c-.391.391-.391 1.023 0 1.414.195.195.451.293.707.293s.512-.098.707-.293z"/><path d="m35 24c.256 0 .512-.098.707-.293l1.707-1.707h.586c.552 0 1-.448 1-1s-.448-1-1-1h-1c-.265 0-.52.105-.707.293l-2 2c-.391.391-.391 1.023 0 1.414.195.195.451.293.707.293z"/><path d="m63 48h-19v-18c.552 0 1-.448 1-1v-4c0-.552-.448-1-1-1v-1c0-.552-.448-1-1-1h1.586l1.707 1.707c.195.195.451.293.707.293s.512-.098.707-.293c.391-.391.391-1.023 0-1.414l-2-2c-.187-.188-.442-.293-.707-.293h-3v-2c0-.552-.448-1-1-1s-1 .448-1 1v4h-1c-.552 0-1 .448-1 1v1c-.552 0-1 .448-1 1v4c0 .552.448 1 1 1h4v18h-2v-15c0-.552-.448-1-1-1s-1 .448-1 1v16c0 .553.448 1 1 1h23v2h-42v-2h15c.552 0 1-.447 1-1s-.448-1-1-1h-15v-11c0-1.654-1.346-3-3-3h-14c-1.654 0-3 1.346-3 3v24c0 1.654 1.346 3 3 3h14c1.654 0 3-1.346 3-3v-7h43c.552 0 1-.447 1-1v-4c0-.553-.448-1-1-1zm-24-22h4v2h-4zm-36 10h14c.551 0 1 .448 1 1v12 4 5h-16v-21c0-.552.449-1 1-1zm14 26h-14c-.551 0-1-.448-1-1v-1h16v1c0 .552-.449 1-1 1z"/><path d="m16 23.292c.275 0 .548-.112.746-.333.368-.412.333-1.044-.078-1.412-1.835-1.643-4.203-2.547-6.668-2.547s-4.833.904-6.667 2.547c-.412.368-.446 1-.078 1.412.369.411 1 .447 1.412.078 1.467-1.313 3.361-2.037 5.333-2.037s3.866.724 5.333 2.037c.191.171.43.255.667.255z"/><path d="m12.999 26.002c.304 0 .604-.138.8-.399.332-.441.243-1.068-.198-1.4-2.093-1.574-5.109-1.574-7.202 0-.441.332-.53.959-.198 1.4.333.441.959.531 1.4.198 1.395-1.049 3.403-1.049 4.798 0 .18.136.391.201.6.201z"/><circle cx="10" cy="30" r="2"/><path d="m8 39h4c.552 0 1-.447 1-1s-.448-1-1-1h-4c-.552 0-1 .447-1 1s.448 1 1 1z"/><path d="m10 54c2.206 0 4-1.794 4-4 0-1.859-1.28-3.411-3-3.858v-1.142c0-.553-.448-1-1-1s-1 .447-1 1v1.142c-1.72.447-3 1.999-3 3.858 0 2.206 1.794 4 4 4zm-1-5.722v1.722c0 .553.448 1 1 1s1-.447 1-1v-1.722c.595.347 1 .985 1 1.722 0 1.103-.897 2-2 2s-2-.897-2-2c0-.737.405-1.375 1-1.722z"/></svg>