<?xml version="1.0" encoding="iso-8859-1"?>
<!-- Generator: Adobe Illustrator 19.0.0, SVG Export Plug-In . SVG Version: 6.00 Build 0)  -->
<svg version="1.1" id="Capa_1" xmlns="http://www.w3.org/2000/svg" xmlns:xlink="http://www.w3.org/1999/xlink" x="0px" y="0px"
	 viewBox="0 0 512 512" style="enable-background:new 0 0 512 512;" xml:space="preserve">
<g>
	<g>
		<path d="M331,228.435V181h30V91H151v90h30v47.434l30,90V451h-60v30h210v-30h-60V318.435L331,228.435z M181,151v-30h150v30H181z
			 M271,451h-30V331h30V451z M275.188,301h-38.377l-20-60h78.377L275.188,301z M211,211v-30h90v30H211z"/>
	</g>
</g>
<g>
	<g>
		<path d="M80.95,48.931C72.484,37.701,59.054,31,45,31C20.187,31,0,51.187,0,76s20.187,45,45,45h91.5L80.95,48.931z M45,91
			c-8.271,0-15-6.729-15-15s6.729-15,15-15c4.768,0,9.147,2.194,12.017,6.019L75.5,91H45z"/>
	</g>
</g>
<g>
	<g>
		<path d="M45,151c-24.813,0-45,20.187-45,45s20.187,45,45,45c14.054,0,27.484-6.701,35.951-17.931L136.5,151H45z M57.136,204.825
			l-0.119,0.157C54.147,208.806,49.768,211,45,211c-8.271,0-15-6.729-15-15s6.729-15,15-15h30.5L57.136,204.825z"/>
	</g>
</g>
<g>
	<g>
		<path d="M467,31c-14.053,0-27.482,6.701-35.948,17.928L375.499,121H467c24.813,0,45-20.187,45-45S491.813,31,467,31z M467,91
			h-30.499l18.364-23.825l0.119-0.157C457.853,63.193,462.232,61,467,61c8.271,0,15,6.729,15,15S475.271,91,467,91z"/>
	</g>
</g>
<g>
	<g>
		<path d="M467,151h-91.501l55.553,72.072C439.518,234.299,452.947,241,467,241c24.813,0,45-20.187,45-45S491.813,151,467,151z
			 M467,211c-4.768,0-9.147-2.193-12.016-6.018L436.501,181H467c8.271,0,15,6.729,15,15S475.271,211,467,211z"/>
	</g>
</g>
<g>
</g>
<g>
</g>
<g>
</g>
<g>
</g>
<g>
</g>
<g>
</g>
<g>
</g>
<g>
</g>
<g>
</g>
<g>
</g>
<g>
</g>
<g>
</g>
<g>
</g>
<g>
</g>
<g>
</g>
</svg>
