<?xml version="1.0" encoding="iso-8859-1"?>
<!-- Generator: Adobe Illustrator 19.0.0, SVG Export Plug-In . SVG Version: 6.00 Build 0)  -->
<svg version="1.1" id="Capa_1" xmlns="http://www.w3.org/2000/svg" xmlns:xlink="http://www.w3.org/1999/xlink" x="0px" y="0px"
	 viewBox="0 0 480 480" style="enable-background:new 0 0 480 480;" xml:space="preserve">
<g>
	<g>
		<g>
			<path d="M440,408V168c-0.011-0.757-0.13-1.508-0.352-2.232c-0.064-0.224-0.16-0.424-0.24-0.64
				c-0.191-0.502-0.435-0.982-0.728-1.432c-0.12-0.192-0.24-0.384-0.376-0.568c-0.395-0.508-0.849-0.967-1.352-1.368
				c-0.088-0.064-0.144-0.152-0.232-0.208h-0.04c-0.04,0-0.096,0-0.144-0.056c-0.616-0.443-1.292-0.796-2.008-1.048l-192-64
				c-1.641-0.547-3.415-0.547-5.056,0l-192,64c-0.715,0.254-1.391,0.607-2.008,1.048c0,0-0.104,0-0.144,0.056
				c-0.078,0.065-0.153,0.135-0.224,0.208c-0.508,0.398-0.965,0.858-1.36,1.368c-0.136,0.184-0.256,0.376-0.376,0.568
				c-0.293,0.45-0.537,0.93-0.728,1.432c-0.08,0.216-0.176,0.416-0.24,0.632c-0.235,0.725-0.367,1.479-0.392,2.24v240
				c-0.001,3.445,2.204,6.503,5.472,7.592L190.696,464H48c-4.418,0-8,3.582-8,8s3.582,8,8,8h384c4.418,0,8-3.582,8-8s-3.582-8-8-8
				H289.304l145.224-48.408C437.796,414.503,440.001,411.445,440,408z M240,112.432L406.704,168L360,183.568L193.304,128
				L240,112.432z M168,136.432l184,61.336v55.104l-32,10.672V208c0-0.112-0.056-0.2-0.064-0.312c-0.04-0.441-0.12-0.878-0.24-1.304
				c-0.018-0.306-0.055-0.611-0.112-0.912c0-0.104-0.112-0.168-0.144-0.264c-0.032-0.096-0.136-0.368-0.224-0.552
				c-0.205-0.376-0.44-0.735-0.704-1.072c-0.212-0.361-0.45-0.706-0.712-1.032c-0.114-0.123-0.234-0.241-0.36-0.352
				c-0.302-0.249-0.623-0.474-0.96-0.672c-0.365-0.285-0.753-0.54-1.16-0.76c-0.168-0.08-0.344-0.136-0.52-0.2
				c-0.176-0.064-0.168-0.12-0.272-0.16L145.296,144L168,136.432z M232,460.904L56,402.232V179.104l176,58.664V460.904z M73.296,168
				L120,152.432L286.696,208L240,223.568L73.296,168z M424.008,402.232L248,460.904V237.768l56-18.664v55.536
				c0.047,0.439,0.135,0.873,0.264,1.296c0.015,0.414,0.065,0.827,0.152,1.232c0,0.112,0.112,0.2,0.152,0.304
				c0.137,0.302,0.292,0.596,0.464,0.88c0.282,0.575,0.634,1.112,1.048,1.6c0.223,0.241,0.458,0.471,0.704,0.688
				c0.488,0.421,1.025,0.781,1.6,1.072c0.272,0.136,0.52,0.288,0.8,0.4c0.898,0.363,1.855,0.558,2.824,0.576
				c0.86-0.002,1.713-0.142,2.528-0.416l48-16c0.104,0,0.176-0.12,0.272-0.16c0.529-0.224,1.029-0.511,1.488-0.856
				c0.409-0.229,0.795-0.497,1.152-0.8c0.647-0.778,1.24-1.598,1.776-2.456c0.313-0.992,0.553-2.005,0.72-3.032
				c0-0.112,0.064-0.2,0.064-0.312v-60.888l56-18.664V402.232z"/>
			<path d="M240,80c4.418,0,8-3.582,8-8V8c0-4.418-3.582-8-8-8s-8,3.582-8,8v64C232,76.418,235.582,80,240,80z"/>
			<path d="M320,104c4.418,0,8-3.582,8-8V32c0-4.418-3.582-8-8-8s-8,3.582-8,8v64C312,100.418,315.582,104,320,104z"/>
			<path d="M400,128c4.418,0,8-3.582,8-8V56c0-4.418-3.582-8-8-8s-8,3.582-8,8v64C392,124.418,395.582,128,400,128z"/>
			<path d="M152,104c4.418,0,8-3.582,8-8V32c0-4.418-3.582-8-8-8s-8,3.582-8,8v64C144,100.418,147.582,104,152,104z"/>
			<path d="M72,128c4.418,0,8-3.582,8-8V56c0-4.418-3.582-8-8-8s-8,3.582-8,8v64C64,124.418,67.582,128,72,128z"/>
		</g>
	</g>
</g>
<g>
</g>
<g>
</g>
<g>
</g>
<g>
</g>
<g>
</g>
<g>
</g>
<g>
</g>
<g>
</g>
<g>
</g>
<g>
</g>
<g>
</g>
<g>
</g>
<g>
</g>
<g>
</g>
<g>
</g>
</svg>
